<svg width="149" height="50" fill="red" xmlns="http://www.w3.org/2000/svg"><path d="M50 25c0 13.807-11.193 25-25 25S0 38.807 0 25 11.193 0 25 0s25 11.193 25 25z" fill="#E73741"/><path fill-rule="evenodd" clip-rule="evenodd" d="M119.719 6.344v23.188c0 4.312 2.317 6.468 6.952 6.468h1.232c.381 0 .689-.132.924-.396.264-.264.396-.572.396-.924a1.13 1.13 0 0 0-.396-.88c-.235-.264-.543-.396-.924-.396h-1.232c-1.525 0-2.596-.279-3.212-.836-.587-.586-.88-1.599-.88-3.036V17.564h5.676a.838.838 0 0 0 .704-.352 1.23 1.23 0 0 0 .308-.836 1.23 1.23 0 0 0-.308-.836.836.836 0 0 0-.704-.352h-5.676V6.344c0-.293-.147-.543-.44-.748a1.723 1.723 0 0 0-1.012-.308 1.65 1.65 0 0 0-.968.308c-.293.205-.44.455-.44.748zm-106.947 9.9v18.612c0 .293.132.557.396.792.293.235.631.352 1.012.352.411 0 .748-.117 1.012-.352.293-.235.44-.499.44-.792V23.988c0-1.907.587-3.447 1.76-4.62 1.173-1.203 2.523-1.804 4.048-1.804h1.54c.293 0 .557-.132.792-.396s.352-.572.352-.924c0-.352-.117-.66-.352-.924s-.499-.396-.792-.396h-1.54c-1.349 0-2.537.337-3.564 1.012-1.027.674-1.804 1.496-2.332 2.464v-2.156c0-.293-.132-.543-.396-.748-.264-.205-.587-.308-.968-.308-.411 0-.748.103-1.012.308-.264.205-.396.455-.396.748zm13.001 6.776v4.928c0 2.493.88 4.517 2.64 6.072 1.76 1.525 4.033 2.288 6.82 2.288 1.878 0 3.447-.323 4.708-.968 1.262-.675 1.892-1.32 1.892-1.936 0-.293-.132-.587-.396-.88-.235-.323-.513-.484-.836-.484-.235 0-.558.147-.968.44-.381.293-.953.587-1.716.88-.733.293-1.599.44-2.596.44-1.965 0-3.579-.513-4.84-1.54-1.232-1.056-1.848-2.45-1.848-4.18v-1.628h9.944c.616 0 1.1-.029 1.452-.088a4.097 4.097 0 0 0 1.144-.396c.44-.206.748-.557.924-1.056.205-.499.308-1.159.308-1.98 0-2.288-.821-4.195-2.464-5.72-1.614-1.525-3.534-2.288-5.764-2.288-2.317 0-4.297.807-5.94 2.42-1.643 1.584-2.464 3.476-2.464 5.676zm2.86 1.32h8.8c.88 0 1.467-.088 1.76-.264.293-.205.44-.616.44-1.232 0-1.467-.528-2.757-1.584-3.872-1.027-1.115-2.332-1.672-3.916-1.672-1.525 0-2.83.528-3.916 1.584-1.056 1.056-1.584 2.317-1.584 3.784v1.672zm17.908.176c-.205.234-.308.543-.308.924 0 .822.367 1.232 1.1 1.232h11.44a.958.958 0 0 0 .748-.352c.235-.235.352-.528.352-.88 0-.381-.117-.689-.352-.924-.205-.264-.454-.396-.748-.396h-11.44a.96.96 0 0 0-.792.396zm18.352 10.34V16.244c0-.293.132-.543.396-.748.264-.205.601-.308 1.012-.308.381 0 .704.103.968.308.264.205.396.455.396.748v2.024c.528-.968 1.29-1.76 2.288-2.376 1.027-.645 2.215-.968 3.564-.968 1.408 0 2.67.41 3.784 1.232 1.115.792 1.936 1.848 2.464 3.168.733-1.437 1.701-2.523 2.904-3.256 1.203-.763 2.464-1.144 3.784-1.144 1.995 0 3.725.748 5.192 2.244 1.467 1.496 2.2 3.49 2.2 5.984v11.704c0 .293-.147.557-.44.792-.264.235-.601.352-1.012.352-.381 0-.719-.117-1.012-.352-.264-.235-.396-.499-.396-.792V23.152c0-1.73-.513-3.095-1.54-4.092-.997-.997-2.156-1.496-3.476-1.496-1.35 0-2.552.513-3.608 1.54-1.027.997-1.54 2.288-1.54 3.872V34.9c0 .733-.484 1.1-1.452 1.1-.939 0-1.408-.367-1.408-1.1V23.02c0-1.555-.499-2.845-1.496-3.872-.968-1.056-2.141-1.584-3.52-1.584s-2.596.513-3.652 1.54c-1.027.997-1.54 2.347-1.54 4.048v11.704c0 .293-.147.557-.44.792a1.57 1.57 0 0 1-1.012.352c-.381 0-.719-.117-1.012-.352-.264-.235-.396-.499-.396-.792zm33.496-11.704v4.796c0 2.2.836 4.151 2.508 5.852 1.672 1.672 3.608 2.508 5.808 2.508 2.229 0 4.18-.836 5.852-2.508 1.701-1.702 2.552-3.652 2.552-5.852v-4.796c0-2.258-.836-4.195-2.508-5.808-1.672-1.613-3.637-2.42-5.896-2.42-2.258 0-4.209.821-5.852 2.464-1.642 1.614-2.464 3.534-2.464 5.764zm2.86 4.796c0 1.496.528 2.83 1.584 4.004 1.085 1.144 2.376 1.716 3.872 1.716 1.526 0 2.83-.572 3.916-1.716 1.085-1.173 1.628-2.508 1.628-4.004v-4.796c0-1.437-.557-2.728-1.672-3.872-1.085-1.144-2.376-1.716-3.872-1.716s-2.787.572-3.872 1.716c-1.056 1.144-1.584 2.435-1.584 3.872v4.796zm30.442 0V23.02c0-2.2.821-4.092 2.464-5.676 1.643-1.613 3.623-2.42 5.94-2.42 2.229 0 4.151.763 5.764 2.288 1.643 1.525 2.464 3.432 2.464 5.72 0 .821-.103 1.481-.308 1.98-.176.499-.484.85-.924 1.056-.36.188-.745.321-1.144.396-.352.059-.836.088-1.452.088h-9.944v1.628c0 1.73.616 3.124 1.848 4.18 1.261 1.027 2.875 1.54 4.84 1.54.997 0 1.863-.147 2.596-.44.763-.293 1.335-.587 1.716-.88.411-.293.733-.44.968-.44.323 0 .601.161.836.484.264.293.396.587.396.88 0 .616-.631 1.261-1.892 1.936-1.261.645-2.831.968-4.708.968-2.787 0-5.06-.763-6.82-2.288-1.76-1.555-2.64-3.579-2.64-6.072zm11.66-3.608h-8.8v-1.672c0-1.467.528-2.728 1.584-3.784 1.085-1.056 2.391-1.584 3.916-1.584 1.584 0 2.889.557 3.916 1.672 1.056 1.115 1.584 2.405 1.584 3.872 0 .616-.147 1.027-.44 1.232-.293.176-.88.264-1.76.264z" fill="#1A1A1A"/></svg>