<svg width="20" height="17" fill="none" xmlns="http://www.w3.org/2000/svg"><path d="M20 1.922a8.193 8.193 0 0 1-2.356.646A4.12 4.12 0 0 0 19.448.3a8.272 8.272 0 0 1-2.607.996 4.103 4.103 0 0 0-6.991 3.74A11.648 11.648 0 0 1 1.392.75 4.072 4.072 0 0 0 .84 2.812a4.1 4.1 0 0 0 1.824 3.414 4.103 4.103 0 0 1-1.858-.515v.052a4.107 4.107 0 0 0 3.29 4.023 4.156 4.156 0 0 1-1.08.143c-.266 0-.522-.026-.773-.076a4.105 4.105 0 0 0 3.832 2.85A8.232 8.232 0 0 1 .98 14.456c-.332 0-.658-.02-.979-.056a11.597 11.597 0 0 0 6.289 1.846c7.547 0 11.673-6.252 11.673-11.673l-.014-.531A8.193 8.193 0 0 0 20 1.922z" fill="#fff"/></svg>